<svg width="49" height="48" viewBox="0 0 49 48" fill="none" xmlns="http://www.w3.org/2000/svg">
<path d="M48.027 13.0731C48.027 5.84248 42.1845 0 34.9538 0H13.1001C5.84922 0 0 5.84248 0 13.0731V34.9269C0 42.1575 5.84249 48 13.0731 48H34.9269C42.1575 48 48 42.1575 48 34.9269V13.0731H48.027ZM23.9697 33.788C18.5854 33.7611 14.34 29.4954 14.34 24.1314C14.34 18.7202 18.6056 14.4276 24.0169 14.4276C29.4281 14.4276 33.7206 18.7202 33.6937 24.1314C33.6667 29.5426 29.3539 33.815 23.9697 33.788ZM36.8744 14.1648C35.3245 14.1648 33.9363 12.8036 33.9363 11.2537C33.9363 9.67682 35.2436 8.36951 36.8474 8.36951C38.4984 8.36951 39.7316 9.58248 39.7316 11.2335C39.7316 12.8575 38.4512 14.1648 36.8744 14.1648Z" fill="#373059"/>
</svg>
