<svg width="48" height="48" viewBox="0 0 48 48" fill="none" xmlns="http://www.w3.org/2000/svg">
<path d="M34.9537 0.00012207H13.1001C5.84921 0.00012207 0 5.84257 0 13.0732V34.9268C0 42.1574 5.84247 47.9999 13.0731 47.9999H34.9268C42.1574 47.9999 47.9999 42.1574 47.9999 34.9268V13.0732C48.0269 5.84931 42.1844 0.00012207 34.9537 0.00012207ZM15.6473 19.2863C15.6473 25.6139 15.6473 31.9685 15.6473 38.3029C15.6473 38.4511 15.6001 38.5724 15.6001 38.7139C13.4437 38.7139 11.2604 38.7139 9.09727 38.7139C9.09727 38.5657 9.07031 38.4242 9.07031 38.3029C9.07031 31.9752 9.07031 25.6409 9.07031 19.3132C9.07031 19.1919 9.07031 19.0437 9.07031 18.9022C11.2806 18.9022 13.437 18.9022 15.6675 18.9022C15.6473 19.0437 15.6473 19.165 15.6473 19.2863ZM13.3696 16.0584C12.0623 16.328 10.7954 16.2067 9.75767 15.2565C8.74012 14.3131 8.45035 13.1204 8.81425 11.8131C9.17814 10.5058 10.1216 9.75102 11.4087 9.46125C11.6984 9.38713 12.0151 9.36691 12.3049 9.313C12.3521 9.313 12.3992 9.313 12.4532 9.313C12.7429 9.36017 13.0327 9.38713 13.3292 9.46125C14.9802 9.79819 16.0921 11.1325 16.0921 12.8104C16.0853 14.3872 14.9937 15.7417 13.3696 16.0584ZM39.3676 38.7409C37.1843 38.7409 34.9807 38.7409 32.7974 38.7409C32.7974 38.5724 32.7974 38.404 32.7974 38.2288C32.7974 34.9066 32.7974 31.5574 32.7974 28.2353C32.7974 27.7973 32.7704 27.3862 32.7232 26.9482C32.6289 26.1934 32.4335 25.4454 31.9954 24.812C30.9981 23.3834 28.6733 23.188 27.2649 24.374C26.2675 25.2231 25.8565 26.2878 25.8565 27.6018C25.8834 31.1666 25.8565 34.7112 25.8565 38.2759C25.8565 38.4242 25.8093 38.5657 25.8093 38.7342C23.6529 38.7342 21.4696 38.7342 19.3064 38.7342C19.3064 38.4916 19.3064 38.2759 19.3064 38.0333C19.3064 33.013 19.3334 28.0129 19.3334 22.9926C19.3334 21.7526 19.3064 20.5397 19.3064 19.3065C19.3064 19.1852 19.3064 19.0369 19.3064 18.8954C21.4898 18.8954 23.6462 18.8954 25.8767 18.8954C25.8767 19.7715 25.8767 20.6408 25.8767 21.564C26.3349 21.0316 26.7258 20.5195 27.184 20.0814C28.6126 18.7472 30.3647 18.3361 32.2515 18.4102C35.8163 18.5315 38.3905 20.789 39.1183 24.4279C39.2396 24.9872 39.3137 25.5667 39.408 26.1261C39.3676 30.3445 39.3676 34.5427 39.3676 38.7409Z" fill="#373059"/>
</svg>
